<mxfile host="Electron" modified="2024-04-04T08:57:31.610Z" agent="Mozilla/5.0 (Windows NT 10.0; Win64; x64) AppleWebKit/537.36 (KHTML, like Gecko) draw.io/23.1.5 Chrome/120.0.6099.109 Electron/28.1.0 Safari/537.36" etag="W8ujKQnZnkG0H7VlobUK" version="23.1.5" type="device">
  <diagram name="Page-1" id="LlJ2udZfXB5sNDzOu6kr">
    <mxGraphModel dx="1687" dy="2093" grid="1" gridSize="10" guides="1" tooltips="1" connect="1" arrows="1" fold="1" page="1" pageScale="1" pageWidth="850" pageHeight="1100" math="0" shadow="0">
      <root>
        <mxCell id="0" />
        <mxCell id="1" parent="0" />
        <mxCell id="L1XhO9sembjcQdD3QEIt-20" value="" style="rounded=0;whiteSpace=wrap;html=1;dashed=1;dashPattern=12 12;" vertex="1" parent="1">
          <mxGeometry x="410" y="160" width="420" height="370" as="geometry" />
        </mxCell>
        <mxCell id="L1XhO9sembjcQdD3QEIt-2" style="edgeStyle=orthogonalEdgeStyle;rounded=0;orthogonalLoop=1;jettySize=auto;html=1;exitX=0.5;exitY=1;exitDx=0;exitDy=0;entryX=0.5;entryY=0;entryDx=0;entryDy=0;" edge="1" parent="1" source="L1XhO9sembjcQdD3QEIt-3" target="L1XhO9sembjcQdD3QEIt-6">
          <mxGeometry relative="1" as="geometry" />
        </mxCell>
        <mxCell id="L1XhO9sembjcQdD3QEIt-3" value="Get Apihub config&lt;br&gt;(from default or custom URLs)" style="rounded=0;whiteSpace=wrap;html=1;" vertex="1" parent="1">
          <mxGeometry x="560" y="70" width="120" height="60" as="geometry" />
        </mxCell>
        <mxCell id="L1XhO9sembjcQdD3QEIt-4" style="edgeStyle=orthogonalEdgeStyle;rounded=0;orthogonalLoop=1;jettySize=auto;html=1;exitX=0;exitY=0.5;exitDx=0;exitDy=0;entryX=0.5;entryY=0;entryDx=0;entryDy=0;" edge="1" parent="1" source="L1XhO9sembjcQdD3QEIt-6" target="L1XhO9sembjcQdD3QEIt-7">
          <mxGeometry relative="1" as="geometry" />
        </mxCell>
        <mxCell id="L1XhO9sembjcQdD3QEIt-5" value="&amp;nbsp; No&amp;nbsp;&amp;nbsp;" style="edgeLabel;html=1;align=center;verticalAlign=middle;resizable=0;points=[];" vertex="1" connectable="0" parent="L1XhO9sembjcQdD3QEIt-4">
          <mxGeometry x="-0.4921" y="-1" relative="1" as="geometry">
            <mxPoint y="1" as="offset" />
          </mxGeometry>
        </mxCell>
        <mxCell id="L1XhO9sembjcQdD3QEIt-12" style="edgeStyle=orthogonalEdgeStyle;rounded=0;orthogonalLoop=1;jettySize=auto;html=1;exitX=1;exitY=0.5;exitDx=0;exitDy=0;entryX=0.5;entryY=0;entryDx=0;entryDy=0;" edge="1" parent="1" source="L1XhO9sembjcQdD3QEIt-6" target="L1XhO9sembjcQdD3QEIt-11">
          <mxGeometry relative="1" as="geometry" />
        </mxCell>
        <mxCell id="L1XhO9sembjcQdD3QEIt-19" value="&amp;nbsp; Yes&amp;nbsp;&amp;nbsp;" style="edgeLabel;html=1;align=center;verticalAlign=middle;resizable=0;points=[];" vertex="1" connectable="0" parent="L1XhO9sembjcQdD3QEIt-12">
          <mxGeometry x="-0.5408" y="-1" relative="1" as="geometry">
            <mxPoint y="-1" as="offset" />
          </mxGeometry>
        </mxCell>
        <mxCell id="L1XhO9sembjcQdD3QEIt-6" value="Config found" style="rhombus;whiteSpace=wrap;html=1;" vertex="1" parent="1">
          <mxGeometry x="575" y="195" width="90" height="85" as="geometry" />
        </mxCell>
        <mxCell id="L1XhO9sembjcQdD3QEIt-14" style="edgeStyle=orthogonalEdgeStyle;rounded=0;orthogonalLoop=1;jettySize=auto;html=1;exitX=0.5;exitY=1;exitDx=0;exitDy=0;entryX=0.5;entryY=0;entryDx=0;entryDy=0;" edge="1" parent="1" source="L1XhO9sembjcQdD3QEIt-7" target="L1XhO9sembjcQdD3QEIt-13">
          <mxGeometry relative="1" as="geometry" />
        </mxCell>
        <mxCell id="L1XhO9sembjcQdD3QEIt-50" style="edgeStyle=orthogonalEdgeStyle;rounded=0;orthogonalLoop=1;jettySize=auto;html=1;exitX=0;exitY=0.5;exitDx=0;exitDy=0;entryX=0.5;entryY=0;entryDx=0;entryDy=0;dashed=1;dashPattern=12 12;" edge="1" parent="1" source="L1XhO9sembjcQdD3QEIt-7" target="L1XhO9sembjcQdD3QEIt-21">
          <mxGeometry relative="1" as="geometry">
            <Array as="points">
              <mxPoint x="370" y="340" />
              <mxPoint x="370" y="-90" />
              <mxPoint x="1130" y="-90" />
            </Array>
          </mxGeometry>
        </mxCell>
        <mxCell id="L1XhO9sembjcQdD3QEIt-51" style="edgeStyle=orthogonalEdgeStyle;rounded=0;orthogonalLoop=1;jettySize=auto;html=1;exitX=0;exitY=0.5;exitDx=0;exitDy=0;entryX=0.5;entryY=0;entryDx=0;entryDy=0;dashed=1;dashPattern=12 12;" edge="1" parent="1" source="L1XhO9sembjcQdD3QEIt-7" target="L1XhO9sembjcQdD3QEIt-35">
          <mxGeometry relative="1" as="geometry">
            <Array as="points">
              <mxPoint x="370" y="340" />
              <mxPoint x="370" y="-90" />
              <mxPoint x="1540" y="-90" />
            </Array>
          </mxGeometry>
        </mxCell>
        <mxCell id="L1XhO9sembjcQdD3QEIt-7" value="Discover documents&lt;br style=&quot;border-color: var(--border-color);&quot;&gt;(implementation depends on API type)" style="rounded=0;whiteSpace=wrap;html=1;" vertex="1" parent="1">
          <mxGeometry x="440" y="310" width="120" height="60" as="geometry" />
        </mxCell>
        <mxCell id="L1XhO9sembjcQdD3QEIt-8" value="For each API type in parallel" style="text;html=1;align=center;verticalAlign=middle;whiteSpace=wrap;rounded=0;" vertex="1" parent="1">
          <mxGeometry x="425" y="180" width="60" height="30" as="geometry" />
        </mxCell>
        <mxCell id="L1XhO9sembjcQdD3QEIt-9" value="Get documents" style="rounded=0;whiteSpace=wrap;html=1;" vertex="1" parent="1">
          <mxGeometry x="560" y="-30" width="120" height="60" as="geometry" />
        </mxCell>
        <mxCell id="L1XhO9sembjcQdD3QEIt-10" style="edgeStyle=orthogonalEdgeStyle;rounded=0;orthogonalLoop=1;jettySize=auto;html=1;exitX=0.5;exitY=1;exitDx=0;exitDy=0;entryX=0.499;entryY=-0.05;entryDx=0;entryDy=0;entryPerimeter=0;" edge="1" parent="1" source="L1XhO9sembjcQdD3QEIt-9" target="L1XhO9sembjcQdD3QEIt-3">
          <mxGeometry relative="1" as="geometry" />
        </mxCell>
        <mxCell id="L1XhO9sembjcQdD3QEIt-15" style="edgeStyle=orthogonalEdgeStyle;rounded=0;orthogonalLoop=1;jettySize=auto;html=1;exitX=0.5;exitY=1;exitDx=0;exitDy=0;" edge="1" parent="1" source="L1XhO9sembjcQdD3QEIt-11">
          <mxGeometry relative="1" as="geometry">
            <mxPoint x="620" y="440" as="targetPoint" />
          </mxGeometry>
        </mxCell>
        <mxCell id="L1XhO9sembjcQdD3QEIt-11" value="Get documents from config in parallel" style="rounded=0;whiteSpace=wrap;html=1;" vertex="1" parent="1">
          <mxGeometry x="680" y="310" width="120" height="60" as="geometry" />
        </mxCell>
        <mxCell id="L1XhO9sembjcQdD3QEIt-13" value="Return documents and errors" style="rounded=0;whiteSpace=wrap;html=1;" vertex="1" parent="1">
          <mxGeometry x="560" y="440" width="120" height="60" as="geometry" />
        </mxCell>
        <mxCell id="L1XhO9sembjcQdD3QEIt-28" style="edgeStyle=orthogonalEdgeStyle;rounded=0;orthogonalLoop=1;jettySize=auto;html=1;exitX=0.5;exitY=1;exitDx=0;exitDy=0;entryX=0.5;entryY=0;entryDx=0;entryDy=0;" edge="1" parent="1" source="L1XhO9sembjcQdD3QEIt-21" target="L1XhO9sembjcQdD3QEIt-22">
          <mxGeometry relative="1" as="geometry" />
        </mxCell>
        <mxCell id="L1XhO9sembjcQdD3QEIt-21" value="Discover documents for REST" style="rounded=0;whiteSpace=wrap;html=1;" vertex="1" parent="1">
          <mxGeometry x="1070" y="-30" width="120" height="60" as="geometry" />
        </mxCell>
        <mxCell id="L1XhO9sembjcQdD3QEIt-29" style="edgeStyle=orthogonalEdgeStyle;rounded=0;orthogonalLoop=1;jettySize=auto;html=1;exitX=0.5;exitY=1;exitDx=0;exitDy=0;entryX=0.5;entryY=0;entryDx=0;entryDy=0;" edge="1" parent="1" source="L1XhO9sembjcQdD3QEIt-22" target="L1XhO9sembjcQdD3QEIt-23">
          <mxGeometry relative="1" as="geometry" />
        </mxCell>
        <mxCell id="L1XhO9sembjcQdD3QEIt-22" value="Check swagger config URLs" style="rounded=0;whiteSpace=wrap;html=1;" vertex="1" parent="1">
          <mxGeometry x="1070" y="70" width="120" height="60" as="geometry" />
        </mxCell>
        <mxCell id="L1XhO9sembjcQdD3QEIt-30" style="edgeStyle=orthogonalEdgeStyle;rounded=0;orthogonalLoop=1;jettySize=auto;html=1;exitX=0;exitY=0.5;exitDx=0;exitDy=0;entryX=0.5;entryY=0;entryDx=0;entryDy=0;" edge="1" parent="1" source="L1XhO9sembjcQdD3QEIt-23" target="L1XhO9sembjcQdD3QEIt-26">
          <mxGeometry relative="1" as="geometry" />
        </mxCell>
        <mxCell id="L1XhO9sembjcQdD3QEIt-47" value="&amp;nbsp; No&amp;nbsp;&amp;nbsp;" style="edgeLabel;html=1;align=center;verticalAlign=middle;resizable=0;points=[];" vertex="1" connectable="0" parent="L1XhO9sembjcQdD3QEIt-30">
          <mxGeometry x="-0.4667" relative="1" as="geometry">
            <mxPoint as="offset" />
          </mxGeometry>
        </mxCell>
        <mxCell id="L1XhO9sembjcQdD3QEIt-31" style="edgeStyle=orthogonalEdgeStyle;rounded=0;orthogonalLoop=1;jettySize=auto;html=1;exitX=1;exitY=0.5;exitDx=0;exitDy=0;entryX=0.5;entryY=0;entryDx=0;entryDy=0;" edge="1" parent="1" source="L1XhO9sembjcQdD3QEIt-23" target="L1XhO9sembjcQdD3QEIt-25">
          <mxGeometry relative="1" as="geometry" />
        </mxCell>
        <mxCell id="L1XhO9sembjcQdD3QEIt-46" value="&amp;nbsp; Yes&amp;nbsp;&amp;nbsp;" style="edgeLabel;html=1;align=center;verticalAlign=middle;resizable=0;points=[];" vertex="1" connectable="0" parent="L1XhO9sembjcQdD3QEIt-31">
          <mxGeometry x="-0.501" y="2" relative="1" as="geometry">
            <mxPoint y="2" as="offset" />
          </mxGeometry>
        </mxCell>
        <mxCell id="L1XhO9sembjcQdD3QEIt-23" value="Swagger &lt;br&gt;config found" style="rhombus;whiteSpace=wrap;html=1;" vertex="1" parent="1">
          <mxGeometry x="1082.5" y="170" width="95" height="90" as="geometry" />
        </mxCell>
        <mxCell id="L1XhO9sembjcQdD3QEIt-32" style="edgeStyle=orthogonalEdgeStyle;rounded=0;orthogonalLoop=1;jettySize=auto;html=1;exitX=0.5;exitY=1;exitDx=0;exitDy=0;entryX=0.5;entryY=0;entryDx=0;entryDy=0;" edge="1" parent="1" source="L1XhO9sembjcQdD3QEIt-25" target="L1XhO9sembjcQdD3QEIt-27">
          <mxGeometry relative="1" as="geometry" />
        </mxCell>
        <mxCell id="L1XhO9sembjcQdD3QEIt-25" value="Get documents from config in parallel" style="rounded=0;whiteSpace=wrap;html=1;" vertex="1" parent="1">
          <mxGeometry x="1190" y="280" width="120" height="60" as="geometry" />
        </mxCell>
        <mxCell id="L1XhO9sembjcQdD3QEIt-33" style="edgeStyle=orthogonalEdgeStyle;rounded=0;orthogonalLoop=1;jettySize=auto;html=1;exitX=0.5;exitY=1;exitDx=0;exitDy=0;entryX=0.5;entryY=0;entryDx=0;entryDy=0;" edge="1" parent="1" source="L1XhO9sembjcQdD3QEIt-26" target="L1XhO9sembjcQdD3QEIt-27">
          <mxGeometry relative="1" as="geometry" />
        </mxCell>
        <mxCell id="L1XhO9sembjcQdD3QEIt-26" value="Check all known REST URLs in parallel" style="rounded=0;whiteSpace=wrap;html=1;" vertex="1" parent="1">
          <mxGeometry x="950" y="280" width="120" height="60" as="geometry" />
        </mxCell>
        <mxCell id="L1XhO9sembjcQdD3QEIt-27" value="Return documents and errors" style="rounded=0;whiteSpace=wrap;html=1;" vertex="1" parent="1">
          <mxGeometry x="1070" y="410" width="120" height="60" as="geometry" />
        </mxCell>
        <mxCell id="L1XhO9sembjcQdD3QEIt-34" style="edgeStyle=orthogonalEdgeStyle;rounded=0;orthogonalLoop=1;jettySize=auto;html=1;exitX=0.5;exitY=1;exitDx=0;exitDy=0;entryX=0.5;entryY=0;entryDx=0;entryDy=0;" edge="1" parent="1" source="L1XhO9sembjcQdD3QEIt-35" target="L1XhO9sembjcQdD3QEIt-37">
          <mxGeometry relative="1" as="geometry" />
        </mxCell>
        <mxCell id="L1XhO9sembjcQdD3QEIt-35" value="Discover documents for Graphql" style="rounded=0;whiteSpace=wrap;html=1;" vertex="1" parent="1">
          <mxGeometry x="1480" y="-30" width="120" height="60" as="geometry" />
        </mxCell>
        <mxCell id="L1XhO9sembjcQdD3QEIt-36" style="edgeStyle=orthogonalEdgeStyle;rounded=0;orthogonalLoop=1;jettySize=auto;html=1;exitX=0.5;exitY=1;exitDx=0;exitDy=0;entryX=0.5;entryY=0;entryDx=0;entryDy=0;" edge="1" parent="1" source="L1XhO9sembjcQdD3QEIt-37" target="L1XhO9sembjcQdD3QEIt-40">
          <mxGeometry relative="1" as="geometry" />
        </mxCell>
        <mxCell id="L1XhO9sembjcQdD3QEIt-37" value="Check custom Graphql config URLs" style="rounded=0;whiteSpace=wrap;html=1;" vertex="1" parent="1">
          <mxGeometry x="1480" y="70" width="120" height="60" as="geometry" />
        </mxCell>
        <mxCell id="L1XhO9sembjcQdD3QEIt-38" style="edgeStyle=orthogonalEdgeStyle;rounded=0;orthogonalLoop=1;jettySize=auto;html=1;exitX=0;exitY=0.5;exitDx=0;exitDy=0;entryX=0.5;entryY=0;entryDx=0;entryDy=0;" edge="1" parent="1" source="L1XhO9sembjcQdD3QEIt-40" target="L1XhO9sembjcQdD3QEIt-44">
          <mxGeometry relative="1" as="geometry" />
        </mxCell>
        <mxCell id="L1XhO9sembjcQdD3QEIt-48" value="&amp;nbsp; No&amp;nbsp;&amp;nbsp;" style="edgeLabel;html=1;align=center;verticalAlign=middle;resizable=0;points=[];" vertex="1" connectable="0" parent="L1XhO9sembjcQdD3QEIt-38">
          <mxGeometry x="-0.4418" y="1" relative="1" as="geometry">
            <mxPoint x="6" y="-1" as="offset" />
          </mxGeometry>
        </mxCell>
        <mxCell id="L1XhO9sembjcQdD3QEIt-39" style="edgeStyle=orthogonalEdgeStyle;rounded=0;orthogonalLoop=1;jettySize=auto;html=1;exitX=1;exitY=0.5;exitDx=0;exitDy=0;entryX=0.5;entryY=0;entryDx=0;entryDy=0;" edge="1" parent="1" source="L1XhO9sembjcQdD3QEIt-40" target="L1XhO9sembjcQdD3QEIt-42">
          <mxGeometry relative="1" as="geometry" />
        </mxCell>
        <mxCell id="L1XhO9sembjcQdD3QEIt-49" value="&amp;nbsp; Yes&amp;nbsp;&amp;nbsp;" style="edgeLabel;html=1;align=center;verticalAlign=middle;resizable=0;points=[];" vertex="1" connectable="0" parent="L1XhO9sembjcQdD3QEIt-39">
          <mxGeometry x="-0.5543" y="2" relative="1" as="geometry">
            <mxPoint x="2" y="2" as="offset" />
          </mxGeometry>
        </mxCell>
        <mxCell id="L1XhO9sembjcQdD3QEIt-40" value="Custom&lt;br&gt;config found" style="rhombus;whiteSpace=wrap;html=1;" vertex="1" parent="1">
          <mxGeometry x="1492.5" y="170" width="95" height="90" as="geometry" />
        </mxCell>
        <mxCell id="L1XhO9sembjcQdD3QEIt-41" style="edgeStyle=orthogonalEdgeStyle;rounded=0;orthogonalLoop=1;jettySize=auto;html=1;exitX=0.5;exitY=1;exitDx=0;exitDy=0;entryX=0.5;entryY=0;entryDx=0;entryDy=0;" edge="1" parent="1" source="L1XhO9sembjcQdD3QEIt-42" target="L1XhO9sembjcQdD3QEIt-45">
          <mxGeometry relative="1" as="geometry" />
        </mxCell>
        <mxCell id="L1XhO9sembjcQdD3QEIt-42" value="Get documents from config in parallel" style="rounded=0;whiteSpace=wrap;html=1;" vertex="1" parent="1">
          <mxGeometry x="1600" y="280" width="120" height="60" as="geometry" />
        </mxCell>
        <mxCell id="L1XhO9sembjcQdD3QEIt-43" style="edgeStyle=orthogonalEdgeStyle;rounded=0;orthogonalLoop=1;jettySize=auto;html=1;exitX=0.5;exitY=1;exitDx=0;exitDy=0;entryX=0.5;entryY=0;entryDx=0;entryDy=0;" edge="1" parent="1" source="L1XhO9sembjcQdD3QEIt-44" target="L1XhO9sembjcQdD3QEIt-45">
          <mxGeometry relative="1" as="geometry" />
        </mxCell>
        <mxCell id="L1XhO9sembjcQdD3QEIt-44" value="Check schema and introspection URLs in parallel" style="rounded=0;whiteSpace=wrap;html=1;" vertex="1" parent="1">
          <mxGeometry x="1360" y="280" width="120" height="60" as="geometry" />
        </mxCell>
        <mxCell id="L1XhO9sembjcQdD3QEIt-45" value="Return documents and errors" style="rounded=0;whiteSpace=wrap;html=1;" vertex="1" parent="1">
          <mxGeometry x="1480" y="410" width="120" height="60" as="geometry" />
        </mxCell>
      </root>
    </mxGraphModel>
  </diagram>
</mxfile>
